<?xml version="1.0" encoding="UTF-8" standalone="no"?>
<!-- Created with Inkscape (http://www.inkscape.org/) -->

<svg
   width="210mm"
   height="297mm"
   viewBox="0 0 210 297"
   version="1.1"
   id="svg1"
   inkscape:version="1.4.2 (ebf0e940, 2025-05-08)"
   sodipodi:docname="photomigrator.svg"
   xmlns:inkscape="http://www.inkscape.org/namespaces/inkscape"
   xmlns:sodipodi="http://sodipodi.sourceforge.net/DTD/sodipodi-0.dtd"
   xmlns="http://www.w3.org/2000/svg"
   xmlns:svg="http://www.w3.org/2000/svg">
  <sodipodi:namedview
     id="namedview1"
     pagecolor="#ffffff"
     bordercolor="#000000"
     borderopacity="0.25"
     inkscape:showpageshadow="2"
     inkscape:pageopacity="0.0"
     inkscape:pagecheckerboard="0"
     inkscape:deskcolor="#d1d1d1"
     inkscape:document-units="mm"
     inkscape:zoom="0.89658647"
     inkscape:cx="455.61696"
     inkscape:cy="577.74684"
     inkscape:window-width="1800"
     inkscape:window-height="1097"
     inkscape:window-x="0"
     inkscape:window-y="44"
     inkscape:window-maximized="0"
     inkscape:current-layer="g483" />
  <defs
     id="defs1" />
  <g
     inkscape:label="Layer 1"
     inkscape:groupmode="layer"
     id="layer1">
    <g
       id="g483"
       transform="matrix(0.19541535,0,0,0.19541535,-25.176613,18.334375)">
      <path
         style="fill:#ffdd55"
         d="m 753.16018,643.32656 c -20.04941,-5.00743 -32.49829,-26.50351 -31.24629,-46.41497 0.54015,-18.43271 14.72928,-34.81653 32.43227,-39.16442 17.59463,-4.7313 38.13447,1.67865 48.3551,17.16209 11.21099,14.50487 12.16802,36.17921 1.21412,51.09785 -11.3758,15.01398 -32.44333,23.45107 -50.7552,17.31945 z"
         id="path5" />
      <path
         style="fill:#ffdd55"
         d="m 473.24059,834.60424 c -0.0917,-17.37099 -1.05294,-51.88257 1.30549,-69.27095 15.1617,-15.98316 27.75486,-34.3935 41.65418,-51.52414 25.26828,-31.81113 48.9777,-64.9354 75.87342,-95.40893 4.71348,-4.56862 11.09413,-9.8964 17.64305,-10.50957 4.98679,1.75441 11.30667,1.25853 14.29673,6.38346 29.95654,34.8071 57.30716,71.79101 86.03846,107.61023 5.01655,6.37022 10.03421,12.73956 15.05126,19.10939 -32.95369,36.50822 -65.80323,73.11028 -98.69654,109.67289 -42.80222,-0.0195 -92.74231,-0.11036 -135.54453,-0.12986 -17.66728,0 -17.62152,0.22494 -17.62152,-15.93252 z"
         id="path486"
         sodipodi:nodetypes="ccccccccccc" />
      <path
         style="fill:#2a7fff"
         d="m 652.20498,1136.6867 c -34.75174,-24.9492 -69.47569,-58.1029 -101.58695,-86.4671 -10.69356,-9.4457 -9.18457,-15.4772 -2.08619,-24.3964 12.02966,-15.1154 30.51593,-32.3708 43.98104,-42.33226 13.28329,-11.21041 36.91578,-30.45135 65.70391,-47.85264 27.01818,-9.98321 15.35964,39.81079 23.28355,59.45235 3.46745,8.59505 13.32074,8.43375 28.92981,7.78355 94.3338,-3.46875 189.8789,-42.56664 248.46931,-118.68046 89.70644,-110.90384 91.22954,-279.67634 9.05164,-395.1386 -22.92161,-34.77795 -54.17796,-62.68822 -85.56306,-89.45919 -12.18925,-13.58061 -8.30203,-34.75773 6.18877,-44.49502 9.96094,-8.93532 25.95609,-9.15148 36.02711,0.63751 106.28228,75.07622 179.12468,200.58675 176.02888,332.44717 -0.2453,160.20702 -109.26636,313.07629 -261.01772,364.82379 -48.31593,17.8523 -101.71208,23.5582 -152.95215,23.9948 -2.17451,0.019 -7.21551,2.3613 -8.04521,5.7351 -3.67481,14.9426 -2.24769,26.1998 -5.4476,45.8846 -2.74309,11.4318 -7.01665,15.9235 -20.96514,8.0628 z"
         id="path485"
         sodipodi:nodetypes="cssccsccccccccsscc" />
      <path
         style="fill:#ff0000"
         d="m 472.9698,890.95614 c -24.23819,0 -36.96983,-12.21894 -36.96983,-35.00105 v -332.0185 c 0,-25.35184 17.37728,-46.59869 45.43329,-46.59869 111.97218,0.2272 303.96542,-0.039 415.9376,0.18824 21.03078,0 31.79512,12.2212 31.79512,34.94532 0.2354,101.02953 0.21166,321.35614 0.21166,338.68501 0,22.58534 -11.21074,39.77359 -37.55039,39.77359 -38.47229,0 -398.44048,0.0261 -418.85745,0.0261 z m 188.47802,-79.28952 c 36.25214,-40.09861 72.19828,-80.47079 108.11688,-120.86782 20.54072,-13.5795 34.81741,10.84357 46.84093,24.11517 24.97037,28.63727 48.28189,58.95126 74.36403,86.54627 2.16726,-86.84882 1.13383,-253.66337 1.20426,-271.64794 0,-11.29869 -5.32768,-15.16074 -20.80086,-15.16074 -117.87334,0.22725 -256.63305,0.45449 -374.5064,0.68174 -20.02339,0 -22.69797,7.79982 -22.69797,21.55306 0,17.99549 -1.08366,273.53319 -0.73701,295.062 -0.26188,14.84738 4.34759,18.62701 17.63043,18.5884 38.92599,0.0178 96.55882,0.11207 135.48481,0.12987 l 35.1009,-39.00003 z"
         id="path484"
         sodipodi:nodetypes="sccccccccscccccccccccsc" />
      <path
         style="fill:#00d455"
         d="M 447.46891,1016.0254 C 402.7337,992.84093 371.19036,950.90261 340.03133,912.37987 247.39991,795.3336 241.52451,623.57155 314.29868,495.24358 381.4941,369.37124 520.17036,283.15669 664.02422,288.19409 c 18.3058,-0.18802 18.69651,-8.90158 18.79283,-27.14958 0.40607,-21.35792 3.72604,-47.41716 39.02493,-26.13037 33.82066,27.74682 78.59698,60.52924 89.79809,73.20892 3.53442,4.56787 14.93039,13.09152 5.20128,24.52755 -11.02953,12.9646 -43.26997,44.07113 -55.76668,58.72121 -17.95144,17.97843 -55.27486,61.80483 -73.73978,25.57088 -6.149,-18.90518 6.65011,-51.16791 -12.40237,-51.77092 -104.63753,-1.73278 -211.35799,43.45263 -274.00283,129.0004 -80.9512,104.84585 -86.95966,260.03648 -13.22055,370.31434 24.32637,39.95968 60.0596,70.58707 94.8324,100.93758 20.86102,22.78151 -8.11224,59.0025 -35.07263,50.6013 z"
         id="path483"
         sodipodi:nodetypes="cccccccsccccccc" />
    </g>
  </g>
</svg>
